# xmcd
#
# Track frame offsets:
#	150
#	18597
#	37357
#	56267
#	76430
#	95392
#	115787
#	135787
#	155335
#	175000
#	193200
#	210437
#	232095
#	250152
#
# Disc length: 3595 seconds
#
# Revision: 4
# Processed by: cddbd v1.5PL3 Copyright (c) Steve Scherf et al.
# Submitted via: CDex 1.50Beta5
#
DISCID=b30e090e
DTITLE=河合その子 - sonnet
DYEAR=1900
DGENRE=Pop
TTITLE0=涙の茉莉花LOVE
TTITLE1=落葉のクレッシェンド
TTITLE2=青いスタスィオン
TTITLE3=再会のラビリンス
TTITLE4=悲しい夜を止めて
TTITLE5=哀愁のカルナバル
TTITLE6=JESSY
TTITLE7=夢から醒めた天使
TTITLE8=雨のメモランダム
TTITLE9=淡い紫のブライトライツ
TTITLE10=生まれたままの風
TTITLE11=フレンズ
TTITLE12=ひとときの未来
TTITLE13=空を見上げて
EXTD=
EXTT0=
EXTT1=
EXTT2=
EXTT3=
EXTT4=
EXTT5=
EXTT6=
EXTT7=
EXTT8=
EXTT9=
EXTT10=
EXTT11=
EXTT12=
EXTT13=
PLAYORDER=
